<?xml version="1.0" standalone="no"?>
<!DOCTYPE svg PUBLIC "-//W3C//DTD SVG 20010904//EN"
 "http://www.w3.org/TR/2001/REC-SVG-20010904/DTD/svg10.dtd">
<svg version="1.0" xmlns="http://www.w3.org/2000/svg"
 width="128.000000pt" height="128.000000pt" viewBox="0 0 128.000000 128.000000"
 preserveAspectRatio="xMidYMid meet">
<metadata>
Created by potrace 1.10, written by Peter Selinger 2001-2011
</metadata>
<g transform="translate(0.000000,128.000000) scale(0.100000,-0.100000)"
fill="#000000" stroke="none">
<path d="M520 1204 c-198 -42 -362 -192 -426 -387 -27 -81 -27 -86 -32 -420
l-4 -337 36 0 36 0 0 156 0 155 43 -63 c126 -184 378 -280 597 -229 131 31
263 120 337 229 l43 63 0 -155 0 -156 36 0 36 0 -4 337 -4 338 -29 84 c-52
153 -152 269 -290 337 -122 60 -247 76 -375 48z m194 -64 c80 -12 192 -62 249
-112 l39 -33 -74 0 c-63 0 -83 -5 -138 -32 -36 -18 -85 -49 -109 -70 l-43 -38
-42 38 c-22 21 -70 52 -106 70 -54 27 -75 32 -138 32 l-74 0 39 33 c53 47 170
101 240 111 80 12 80 12 157 1z m-444 -155 c10 -12 5 -17 -26 -30 -20 -8 -39
-14 -41 -12 -5 6 37 57 47 57 4 0 13 -7 20 -15z m798 -23 l25 -33 -27 11 c-58
22 -68 30 -55 46 16 19 27 14 57 -24z m-604 -59 c28 -14 75 -50 106 -79 31
-30 63 -54 70 -54 7 0 40 25 73 56 34 31 84 67 112 80 94 44 228 25 270 -39 8
-13 24 -59 36 -103 47 -179 -7 -361 -144 -491 -71 -67 -129 -99 -222 -123 -98
-25 -152 -25 -250 0 -93 24 -151 56 -222 123 -109 103 -155 208 -157 362 -1
144 32 238 97 271 74 39 149 38 231 -3z m708 -489 c-4 -35 -9 -39 -29 -26 -10
6 -9 18 4 51 19 48 32 35 25 -25z m-1034 9 c8 -26 8 -33 -5 -37 -23 -9 -33 2
-33 38 0 58 19 57 38 -1z"/>
<path d="M331 752 c-38 -21 -71 -73 -71 -112 0 -39 33 -91 71 -112 68 -38 158
-1 181 73 33 111 -82 206 -181 151z m120 -48 c44 -40 30 -114 -25 -141 -30
-14 -39 -14 -66 -3 -38 16 -66 67 -56 104 14 57 102 81 147 40z"/>
<path d="M833 755 c-60 -26 -87 -102 -60 -167 40 -97 179 -101 229 -7 10 18
18 45 18 59 0 39 -33 92 -71 112 -40 21 -72 22 -116 3z m118 -51 c56 -51 10
-154 -69 -154 -29 0 -70 37 -77 70 -18 82 83 141 146 84z"/>
<path d="M582 474 c-29 -21 -52 -45 -52 -54 0 -19 100 -190 111 -190 11 0 109
171 109 190 0 15 -92 90 -111 90 -3 0 -28 -16 -57 -36z m93 -30 c14 -9 25 -25
25 -35 0 -22 -46 -99 -59 -99 -13 0 -61 77 -61 99 0 19 35 50 58 50 7 1 24 -6
37 -15z"/>
</g>
</svg>
